<?xml version="1.0" encoding="UTF-8" standalone="no"?>
<!-- Generator: Adobe Illustrator 23.0.4, SVG Export Plug-In . SVG Version: 6.00 Build 0)  -->

<svg
   xmlns:dc="http://purl.org/dc/elements/1.1/"
   xmlns:cc="http://creativecommons.org/ns#"
   xmlns:rdf="http://www.w3.org/1999/02/22-rdf-syntax-ns#"
   xmlns:svg="http://www.w3.org/2000/svg"
   xmlns="http://www.w3.org/2000/svg"
   xmlns:sodipodi="http://sodipodi.sourceforge.net/DTD/sodipodi-0.dtd"
   xmlns:inkscape="http://www.inkscape.org/namespaces/inkscape"
   version="1.1"
   id="Layer_1"
   x="0px"
   y="0px"
   viewBox="0 0 255.94999 95.399997"
   xml:space="preserve"
   sodipodi:docname="icon.svg"
   width="255.95"
   height="95.400002"
   inkscape:version="0.92.2 (5c3e80d, 2017-08-06)"><metadata
     id="metadata3743"><rdf:RDF><cc:Work
         rdf:about=""><dc:format>image/svg+xml</dc:format><dc:type
           rdf:resource="http://purl.org/dc/dcmitype/StillImage" /><dc:title></dc:title></cc:Work></rdf:RDF></metadata><defs
     id="defs3741" /><sodipodi:namedview
     pagecolor="#ffffff"
     bordercolor="#666666"
     borderopacity="1"
     objecttolerance="10"
     gridtolerance="10"
     guidetolerance="10"
     inkscape:pageopacity="0"
     inkscape:pageshadow="2"
     inkscape:window-width="1920"
     inkscape:window-height="1027"
     id="namedview3739"
     showgrid="false"
     fit-margin-top="0"
     fit-margin-left="0"
     fit-margin-right="0"
     fit-margin-bottom="0"
     inkscape:zoom="1.4413385"
     inkscape:cx="128.02501"
     inkscape:cy="47.199985"
     inkscape:window-x="-8"
     inkscape:window-y="-8"
     inkscape:window-maximized="1"
     inkscape:current-layer="Layer_1" /><style
     type="text/css"
     id="style3722">
	.st0{fill:#231F20;}
</style><g
     id="g3728"
     transform="translate(-292.92,-249.44)"><polygon
       class="st0"
       points="345.23,317.85 341.23,312.74 341.23,340.85 345.23,340.85 "
       id="polygon3724"
       style="fill:#231f20" /><polygon
       class="st0"
       points="298.15,251.46 292.92,251.46 341.23,308.74 345.23,308.74 393.54,251.46 388.31,251.46 343.23,304.91 "
       id="polygon3726"
       style="fill:#231f20" /></g><g
     id="g3734"
     transform="translate(-292.92,-249.44)"><polygon
       class="st0"
       points="422.7,266.1 418.7,261 418.7,340.85 422.7,340.85 "
       id="polygon3730"
       style="fill:#231f20" /><rect
       x="418.70001"
       y="251.46001"
       class="st0"
       width="4"
       height="5.5300002"
       id="rect3732"
       style="fill:#231f20" /></g><path
     class="st0"
     d="m 251.75,51.76 c -2.05,22.23 -20.74,39.64 -43.5,39.64 -24.13,0 -43.7,-19.56 -43.7,-43.7 0,-24.14 19.56,-43.7 43.7,-43.7 24.14,0 43.7,19.56 43.7,43.7 h 4 C 255.95,21.36 234.6,0 208.25,0 c -26.35,0 -47.7,21.35 -47.7,47.7 0,26.35 21.35,47.7 47.7,47.7 23.46,0 42.95,-16.94 46.94,-39.26 z"
     id="path3736"
     inkscape:connector-curvature="0"
     style="fill:#231f20" /></svg>